<?xml version="1.0" encoding="UTF-8" standalone="no"?>
<!-- Created with Inkscape (http://www.inkscape.org/) -->

<svg
   xmlns:dc="http://purl.org/dc/elements/1.1/"
   xmlns:cc="http://creativecommons.org/ns#"
   xmlns:rdf="http://www.w3.org/1999/02/22-rdf-syntax-ns#"
   xmlns:svg="http://www.w3.org/2000/svg"
   xmlns="http://www.w3.org/2000/svg"
   xmlns:sodipodi="http://sodipodi.sourceforge.net/DTD/sodipodi-0.dtd"
   xmlns:inkscape="http://www.inkscape.org/namespaces/inkscape"
   width="100mm"
   height="60mm"
   viewBox="0 0 99.999998 60"
   version="1.1"
   id="svg8"
   inkscape:version="0.92.5 (2060ec1f9f, 2020-04-08)"
   sodipodi:docname="linenotify.svg">
  <defs
     id="defs2" />
  <sodipodi:namedview
     id="base"
     pagecolor="#ffffff"
     bordercolor="#666666"
     borderopacity="1.0"
     inkscape:pageopacity="0.0"
     inkscape:pageshadow="2"
     inkscape:zoom="1.2735873"
     inkscape:cx="216.44386"
     inkscape:cy="94.976833"
     inkscape:document-units="mm"
     inkscape:current-layer="layer1"
     showgrid="false"
     fit-margin-top="0"
     fit-margin-left="0"
     fit-margin-right="0"
     fit-margin-bottom="0"
     inkscape:window-width="1368"
     inkscape:window-height="836"
     inkscape:window-x="72"
     inkscape:window-y="27"
     inkscape:window-maximized="1" />
  <metadata
     id="metadata5">
    <rdf:RDF>
      <cc:Work
         rdf:about="">
        <dc:format>image/svg+xml</dc:format>
        <dc:type
           rdf:resource="http://purl.org/dc/dcmitype/StillImage" />
        <dc:title></dc:title>
      </cc:Work>
    </rdf:RDF>
  </metadata>
  <g
     inkscape:label="圖層 1"
     inkscape:groupmode="layer"
     id="layer1"
     transform="translate(-17.005657,-33.492683)">
    <rect
       style="opacity:1;fill:#d5f6ff;stroke:none;stroke-width:0.45311227;stroke-linejoin:round;stroke-miterlimit:4;stroke-dasharray:none"
       id="rect814"
       width="100"
       height="60"
       x="17.005657"
       y="33.492683" />
    <path
       inkscape:connector-curvature="0"
       id="path918"
       d="m 28.601435,78.583307 c -3.438167,-0.922936 -7.202298,-4.164552 -8.76122,-7.545028 -3.251091,-7.049888 -0.564677,-15.487266 6.015024,-18.891736 8.2307,-4.25873 17.799323,0.889121 19.344846,10.407384 0.979108,6.029944 -2.188238,12.279064 -7.622742,15.039531 -1.913897,0.972174 -2.471348,1.10126 -5.068779,1.173776 -1.605114,0.04483 -3.363321,-0.03794 -3.907129,-0.183927 z m 4.831949,-4.131822 c 0.47631,-0.296817 1.013074,-0.880146 1.192808,-1.296284 0.306934,-0.71065 0.493659,-0.756619 3.07304,-0.756619 2.791953,0 3.718095,-0.168522 3.718095,-0.676523 0,-0.155716 -0.509883,-1.123959 -1.133072,-2.151674 -1.094423,-1.804827 -1.139202,-1.995892 -1.312743,-5.601423 -0.151976,-3.157451 -0.291773,-3.924202 -0.906928,-4.974212 -0.800877,-1.367014 -2.891547,-3.123807 -3.717491,-3.123807 -0.289783,0 -0.878363,-0.291664 -1.307957,-0.648146 -0.923145,-0.766026 -1.547576,-0.821722 -2.050177,-0.182862 -0.201323,0.255902 -0.763201,0.557294 -1.24862,0.669771 -1.276141,0.295679 -3.175178,1.849335 -4.021312,3.28994 -0.624352,1.063009 -0.756127,1.794236 -0.896214,4.973073 -0.159657,3.622985 -0.196104,3.778922 -1.30802,5.596527 -0.629083,1.02834 -1.143787,1.997097 -1.143787,2.152813 0,0.500027 0.913209,0.676514 3.500436,0.676514 2.429763,0 2.563855,0.03932 3.430861,1.005888 1.476914,1.646521 2.679809,1.951395 4.131081,1.047024 z M 30.97257,72.884683 c -0.329721,-0.419114 -0.202705,-0.486101 0.921597,-0.486101 1.124302,0 1.251317,0.06697 0.921596,0.486101 -0.210336,0.267358 -0.625054,0.48611 -0.921596,0.48611 -0.296543,0 -0.711261,-0.218752 -0.921597,-0.48611 z M 24.9809,70.451937 c -0.105135,-0.179454 0.09407,-0.748837 0.442667,-1.26529 0.534774,-0.79227 0.633824,-1.426601 0.633824,-4.059093 0,-5.52199 1.84042,-8.065004 5.836776,-8.065004 1.941384,0 3.262508,0.613947 4.405983,2.047525 1.075124,1.347893 1.42705,2.882616 1.429079,6.232116 0.0014,2.229169 0.128406,3.047565 0.60019,3.865961 0.329162,0.570992 0.528363,1.157848 0.442668,1.304121 -0.230841,0.394017 -13.55916,0.335712 -13.791187,-0.06035 z m 84.74123,0.15218 c -0.0997,-0.273999 0.0626,-0.782423 0.36067,-1.129838 0.51986,-0.605991 0.50888,-0.709236 -0.26995,-2.540024 -0.4465,-1.049596 -0.90102,-2.378841 -1.01004,-2.953884 -0.17166,-0.905371 -0.12049,-1.029726 0.38167,-0.927712 0.37949,0.07707 0.77978,0.704403 1.1583,1.815226 0.31813,0.933574 0.76459,1.697413 0.99214,1.697413 0.23767,0 0.62492,-0.766292 0.90997,-1.800703 0.37469,-1.35967 0.62132,-1.773558 1.00698,-1.689862 0.642,0.139329 0.55202,1.29645 -0.28414,3.654016 -0.65772,1.854498 -2.24135,4.37354 -2.74947,4.37354 -0.1732,0 -0.39645,-0.224173 -0.49613,-0.498172 z M 49.422434,68.453298 c -0.597366,-0.233111 -0.632337,-0.499513 -0.632337,-4.816741 0,-4.553876 0.0024,-4.569621 0.691197,-4.466422 0.658164,0.0986 0.69484,0.258428 0.767407,3.344263 0.111854,4.756516 0.08697,4.698082 2.003233,4.703998 1.739369,0.0055 2.725941,0.414347 2.21877,0.919776 -0.396518,0.395156 -4.230003,0.63445 -5.04827,0.315126 z m 17.294699,0.04134 c -0.379626,-0.151372 -1.290299,-1.438047 -2.150388,-3.038241 -0.820554,-1.526622 -1.595583,-2.776644 -1.72231,-2.77782 -0.126719,-9.18e-4 -0.232513,1.128066 -0.235099,2.509415 -0.0052,2.760696 -0.237014,3.444973 -1.1073,3.268165 -0.532485,-0.108178 -0.577593,-0.471284 -0.577593,-4.6499 v -4.532564 h 0.921602 c 0.964193,0 1.000828,0.04566 3.686382,4.595876 l 0.921593,1.561483 0.07776,-2.430542 c 0.109381,-3.420004 0.260317,-3.952597 1.085129,-3.828876 0.659631,0.09895 0.682934,0.237153 0.765703,4.541805 0.07654,3.979954 0.02882,4.471015 -0.460801,4.741753 -0.300391,0.166115 -0.842481,0.183863 -1.204647,0.03941 z m 7.109651,0.01506 -2.457579,-0.162036 v -4.374964 -4.374964 l 2.866393,-0.09352 c 2.613609,-0.08525 2.857163,-0.04244 2.761697,0.48611 -0.0849,0.469915 -0.467123,0.597889 -2.01941,0.676055 -1.744603,0.08782 -1.931599,0.167401 -2.104809,0.895404 -0.282139,1.185903 0.338436,1.718238 2.130715,1.827775 1.165679,0.07129 1.587781,0.226267 1.587781,0.583145 0,0.364401 -0.441756,0.510426 -1.76437,0.583237 -1.580623,0.08699 -1.784024,0.179747 -1.953116,0.890471 -0.331261,1.392327 0.02621,1.767008 1.685929,1.767008 1.77886,0 2.492358,0.231935 2.492358,0.810183 0,0.597862 -0.465808,0.668063 -3.225589,0.486101 z m 17.146413,-0.0018 c -1.417026,-0.60228 -1.79683,-3.167308 -0.688986,-4.65306 0.490635,-0.658003 0.907704,-0.853882 1.818064,-0.853882 1.624425,0 2.099228,0.246109 2.652569,1.374928 1.29379,2.639327 -1.111149,5.267089 -3.781647,4.132023 z m 2.199587,-1.086112 c 1.108989,-0.855444 0.525362,-3.448619 -0.776152,-3.448619 -1.365527,0 -2.017564,2.123949 -1.011913,3.296219 0.606617,0.707114 1.022946,0.7426 1.788065,0.1524 z m 4.223056,0.907963 c -0.627699,-0.463797 -0.682751,-0.764317 -0.682751,-3.726817 0,-2.861801 0.06061,-3.222334 0.54155,-3.222334 0.297857,0 0.678014,0.328124 0.844798,0.72916 0.166784,0.401036 0.614279,0.775763 0.994444,0.832718 0.818352,0.122609 0.940139,1.030691 0.13824,1.030691 -0.85051,0 -1.290238,0.662698 -1.290238,1.944431 0,1.281733 0.439728,1.944431 1.290238,1.944431 0.682612,0 0.726562,0.508516 0.06705,0.775506 -0.753328,0.304957 -1.163928,0.238558 -1.903315,-0.307777 z M 56.656533,67.997548 c -0.285169,-0.783938 -0.212571,-8.016164 0.08543,-8.512251 0.144378,-0.24034 0.522418,-0.384344 0.840095,-0.320022 0.528174,0.106947 0.584872,0.511593 0.662817,4.730923 l 0.08525,4.613963 h -0.743559 c -0.408962,0 -0.827477,-0.230677 -0.93004,-0.512613 z M 82.165067,67.79669 c -0.244982,-0.964834 -0.253132,-5.562032 -0.01106,-6.22756 0.10258,-0.281936 0.507554,-0.512612 0.899972,-0.512612 0.567958,0 0.950413,0.462722 1.874975,2.268505 0.638819,1.24767 1.270619,2.268495 1.404025,2.268495 0.133407,0 0.244669,-0.838532 0.247255,-1.863408 0.0052,-2.107194 0.314507,-2.862434 1.049949,-2.564716 0.429679,0.173932 0.489642,0.707591 0.414997,3.69302 l -0.08725,3.48971 -0.828923,0.10093 c -0.70668,0.08608 -0.927793,-0.105128 -1.499307,-1.296285 -0.368706,-0.768469 -0.963366,-1.83471 -1.321456,-2.369425 l -0.651097,-0.97222 -0.153592,2.265519 c -0.118507,1.747808 -0.267375,2.28831 -0.651485,2.365218 -0.305398,0.06118 -0.570974,-0.188264 -0.687,-0.645171 z m 19.155993,-2.01737 c 0,-2.237731 0.0885,-2.778371 0.45495,-2.778371 0.60461,0 0.82858,1.070192 0.71429,3.413106 -0.0747,1.530837 -0.20473,1.949998 -0.63163,2.035706 -0.47816,0.09599 -0.53761,-0.199306 -0.53761,-2.670441 z m 3.07199,-0.777453 c 0,-3.248166 0.0527,-3.560545 0.711,-4.212927 0.82106,-0.813711 2.11501,-0.921668 2.66517,-0.222363 0.421,0.535137 0.19184,0.69993 -1.22264,0.879145 -0.45934,0.05815 -0.80886,0.340296 -0.87502,0.706213 -0.12864,0.711542 0.42368,1.161118 1.43508,1.168127 1.02047,0.0073 0.67194,0.730217 -0.50729,1.052563 -0.96113,0.262737 -0.97751,0.299629 -0.97751,2.202373 0,1.71912 -0.0686,1.935163 -0.61439,1.935163 -0.57656,0 -0.6144,-0.216043 -0.6144,-3.508294 z m -3.07199,-3.926223 c 0,-0.345955 0.11029,-0.700913 0.24507,-0.788789 0.43773,-0.28539 1.07848,0.365834 0.88453,0.898996 -0.26637,0.732275 -1.1296,0.648055 -1.1296,-0.110207 z"
       style="fill:#51ca51;stroke-width:0.31552228" />
  </g>
</svg>
