<?xml version="1.0" encoding="UTF-8"?>
<svg xmlns="http://www.w3.org/2000/svg" xmlns:xlink="http://www.w3.org/1999/xlink" width="64px" height="64px" viewBox="0 0 64 64" version="1.1">
<g id="surface1">
<path style=" stroke:none;fill-rule:nonzero;fill:rgb(30.19608%,41.960785%,99.607843%);fill-opacity:1;" d="M 63.328125 11.953125 C 62.652344 11.621094 62.355469 12.253906 61.960938 12.574219 C 61.828125 12.679688 61.710938 12.816406 61.597656 12.9375 C 60.605469 13.996094 59.449219 14.691406 57.9375 14.609375 C 55.726562 14.484375 53.835938 15.179688 52.167969 16.871094 C 51.8125 14.785156 50.632812 13.542969 48.84375 12.742188 C 47.902344 12.324219 46.953125 11.910156 46.296875 11.007812 C 45.835938 10.367188 45.710938 9.648438 45.484375 8.945312 C 45.335938 8.515625 45.1875 8.082031 44.703125 8.011719 C 44.167969 7.929688 43.960938 8.375 43.753906 8.746094 C 42.917969 10.273438 42.59375 11.953125 42.625 13.652344 C 42.699219 17.484375 44.316406 20.535156 47.527344 22.703125 C 47.894531 22.949219 47.988281 23.199219 47.871094 23.5625 C 47.652344 24.308594 47.390625 25.035156 47.164062 25.785156 C 47.015625 26.261719 46.796875 26.363281 46.285156 26.15625 C 44.554688 25.414062 42.984375 24.34375 41.65625 23.011719 C 39.371094 20.800781 37.308594 18.367188 34.730469 16.457031 C 34.132812 16.015625 33.519531 15.597656 32.894531 15.199219 C 30.265625 12.648438 33.238281 10.550781 33.929688 10.304688 C 34.648438 10.042969 34.175781 9.152344 31.851562 9.164062 C 29.523438 9.171875 27.398438 9.949219 24.683594 10.988281 C 24.28125 11.140625 23.867188 11.261719 23.445312 11.351562 C 20.910156 10.875 18.320312 10.78125 15.757812 11.078125 C 10.730469 11.640625 6.71875 14.019531 3.765625 18.074219 C 0.21875 22.949219 -0.617188 28.492188 0.40625 34.265625 C 1.480469 40.355469 4.589844 45.398438 9.367188 49.339844 C 14.320312 53.429688 20.023438 55.433594 26.535156 55.046875 C 30.484375 54.820312 34.886719 54.289062 39.851562 50.089844 C 41.105469 50.710938 42.414062 50.960938 44.597656 51.148438 C 46.277344 51.304688 47.894531 51.066406 49.144531 50.804688 C 51.105469 50.390625 50.96875 48.574219 50.261719 48.242188 C 44.515625 45.566406 45.777344 46.65625 44.625 45.773438 C 47.550781 42.316406 51.949219 38.726562 53.671875 27.097656 C 53.804688 26.171875 53.691406 25.59375 53.671875 24.84375 C 53.660156 24.390625 53.765625 24.214844 54.285156 24.164062 C 55.726562 24.011719 57.128906 23.582031 58.40625 22.894531 C 62.128906 20.863281 63.632812 17.523438 63.988281 13.515625 C 64.039062 12.902344 63.976562 12.273438 63.328125 11.949219 Z M 30.882812 48 C 25.3125 43.621094 22.609375 42.179688 21.496094 42.238281 C 20.449219 42.304688 20.640625 43.496094 20.871094 44.273438 C 21.109375 45.042969 21.421875 45.570312 21.859375 46.246094 C 22.164062 46.691406 22.371094 47.355469 21.558594 47.851562 C 19.761719 48.960938 16.644531 47.480469 16.5 47.40625 C 12.871094 45.269531 9.832031 42.449219 7.695312 38.589844 C 5.632812 34.875 4.433594 30.890625 4.234375 26.636719 C 4.179688 25.609375 4.484375 25.246094 5.507812 25.058594 C 6.851562 24.800781 8.226562 24.765625 9.585938 24.953125 C 15.269531 25.785156 20.105469 28.328125 24.164062 32.351562 C 26.480469 34.644531 28.230469 37.382812 30.039062 40.0625 C 31.957031 42.902344 34.019531 45.613281 36.652344 47.832031 C 37.578125 48.609375 38.316406 49.203125 39.027344 49.636719 C 36.886719 49.878906 33.320312 49.929688 30.882812 48 Z M 33.550781 30.828125 C 33.546875 30.558594 33.679688 30.304688 33.902344 30.152344 C 34.121094 30 34.40625 29.964844 34.65625 30.0625 C 35.191406 31.046875 35.101562 31.257812 34.949219 31.410156 C 34.792969 31.566406 34.582031 31.652344 34.363281 31.648438 C 34.144531 31.648438 33.9375 31.5625 33.785156 31.40625 C 33.632812 31.253906 33.546875 31.042969 33.550781 30.828125 Z M 41.84375 35.082031 C 41.308594 35.296875 40.777344 35.484375 40.269531 35.507812 C 39.503906 35.535156 38.75 35.296875 38.140625 34.832031 C 37.410156 34.21875 36.886719 33.878906 36.667969 32.8125 C 36.59375 32.289062 36.609375 31.757812 36.710938 31.242188 C 36.898438 30.371094 36.691406 29.8125 36.074219 29.304688 C 35.574219 28.886719 34.9375 28.773438 34.238281 28.773438 C 34 28.757812 33.769531 28.6875 33.5625 28.566406 C 33.269531 28.421875 33.03125 28.058594 33.257812 27.609375 C 33.332031 27.464844 33.683594 27.113281 33.769531 27.050781 C 34.71875 26.511719 35.816406 26.6875 36.828125 27.09375 C 37.765625 27.476562 38.476562 28.179688 39.496094 29.179688 C 40.539062 30.382812 40.726562 30.714844 41.324219 31.617188 C 41.792969 32.324219 42.21875 33.046875 42.507812 33.878906 C 42.6875 34.398438 42.457031 34.820312 41.84375 35.082031 Z M 41.84375 35.082031 "/>
</g>
</svg>
