<?xml version="1.0" encoding="UTF-8" standalone="no"?>
<svg
   xmlns:dc="http://purl.org/dc/elements/1.1/"
   xmlns:cc="http://creativecommons.org/ns#"
   xmlns:rdf="http://www.w3.org/1999/02/22-rdf-syntax-ns#"
   xmlns:svg="http://www.w3.org/2000/svg"
   xmlns="http://www.w3.org/2000/svg"
   xmlns:sodipodi="http://sodipodi.sourceforge.net/DTD/sodipodi-0.dtd"
   xmlns:inkscape="http://www.inkscape.org/namespaces/inkscape"
   id="Layer_1"
   viewBox="0 0 66.1 24.7"
   version="1.1"
   sodipodi:docname="1e9652bec24bcaacf5285be19746a750.svg"
   inkscape:version="0.92.3 (2405546, 2018-03-11)">
  <sodipodi:namedview
     pagecolor="#ffffff"
     bordercolor="#666666"
     borderopacity="1"
     objecttolerance="10"
     gridtolerance="10"
     guidetolerance="10"
     inkscape:pageopacity="0"
     inkscape:pageshadow="2"
     inkscape:window-width="1533"
     inkscape:window-height="836"
     id="namedview25"
     showgrid="false"
     inkscape:zoom="14.08472"
     inkscape:cx="33.049999"
     inkscape:cy="12.35"
     inkscape:window-x="67"
     inkscape:window-y="27"
     inkscape:window-maximized="1"
     inkscape:current-layer="Layer_1" />
  <metadata
     id="metadata29">
    <rdf:RDF>
      <cc:Work
         rdf:about="">
        <dc:format>image/svg+xml</dc:format>
        <dc:type
           rdf:resource="http://purl.org/dc/dcmitype/StillImage" />
        <dc:title />
      </cc:Work>
    </rdf:RDF>
  </metadata>
  <defs
     id="defs27" />
  <style
     id="style2">.st0{fill:#fff}.st1{fill:#f9a83a}</style>
  <g
     id="g4764"
     transform="matrix(1.505732,0,0,1.505732,3.500748,-5.6687907)">
    <path
       style="fill:#ea584d;stroke:#ffffff;stroke-width:0.5;stroke-miterlimit:4;stroke-dasharray:none"
       d="M 4.8736742,19.365513 C 4.3829144,18.873076 3.9813837,18.431368 3.9813837,18.383939 c 0,-0.152884 5.4706715,-5.560142 5.565842,-5.501323 0.050543,0.03124 0.4768823,0.451404 0.9474253,0.933706 0.470543,0.482302 0.873402,0.895019 0.895242,0.917145 0.05493,0.05565 -5.4239942,5.527382 -5.5346466,5.527382 -0.049107,0 -0.4908124,-0.402901 -0.9815722,-0.895336 z m 4.8632223,-0.02031 -0.9125339,-0.91565 0.9125339,-0.91565 c 0.5018945,-0.503607 0.9531785,-0.915649 1.0028555,-0.915649 0.04967,0 0.499193,0.410269 0.998927,0.91171 l 0.908607,0.91171 -0.904924,0.91959 c -0.497708,0.505773 -0.947226,0.919589 -0.998927,0.919589 -0.0517,0 -0.504644,-0.412042 -1.0065385,-0.91565 z M 1.2110745,15.702916 C 0.72031469,15.21048 0.31878402,14.768305 0.31878402,14.720305 c 0,-0.048 0.41228456,-0.498156 0.91618738,-1.000345 l 0.9161882,-0.913069 0.9794934,0.979495 0.9794934,0.979492 -0.9130699,0.916188 c -0.5021878,0.503903 -0.9537139,0.916188 -1.0033904,0.916188 -0.049673,0 -0.4918518,-0.402902 -0.9826116,-0.895338 z M 11.568178,13.851286 8.8222503,11.10432 9.7814987,10.145072 10.740747,9.1858243 l 2.789018,2.7900407 2.789018,2.79004 -0.913057,0.916173 c -0.50218,0.503897 -0.953232,0.916176 -1.002338,0.916176 -0.04911,0 -1.324949,-1.236136 -2.83521,-2.746968 z M 3.0434133,12.651725 C 1.5448671,11.152613 0.31878402,9.8846947 0.31878402,9.8341304 c 0,-0.050567 0.41404989,-0.4993814 0.92011128,-0.9973732 l 0.9201113,-0.9054383 2.7856348,2.7846151 2.785634,2.784615 -0.9355079,0.938417 c -0.514529,0.51613 -0.9560312,0.938418 -0.9811159,0.938418 -0.025088,0 -1.271692,-1.226547 -2.7702383,-2.725659 z M 6.0945402,10.819447 C 5.6037804,10.327012 5.2022497,9.8853041 5.2022497,9.8378749 c 0,-0.1139812 5.4255053,-5.535494 5.5395713,-5.535494 0.11377,0 1.872831,1.7628921 1.872831,1.8769099 0,0.1139812 -5.4255036,5.5354942 -5.5395694,5.5354942 -0.04854,0 -0.4897826,-0.402903 -0.9805424,-0.895338 z m 7.3251978,0 c -0.49076,-0.492435 -0.892291,-0.933239 -0.892291,-0.9795643 0,-0.1139349 1.760968,-1.8749029 1.874903,-1.8749029 0.113935,0 1.874902,1.760968 1.874902,1.8749029 0,0.1139349 -1.760967,1.8749023 -1.874902,1.8749023 -0.04967,0 -0.491851,-0.402903 -0.982612,-0.895338 z M 4.9010076,7.1799291 C 4.3952142,6.6822013 3.9813837,6.2326686 3.9813837,6.1809652 c 0,-0.051699 0.4122846,-0.5048856 0.9161874,-1.0070733 l 0.9161874,-0.91307 0.9592165,0.9592165 0.9592173,0.9592173 -0.95578,0.9528157 -0.95578,0.9528157 z"
       id="path4893"
       inkscape:connector-curvature="0" />
    <path
       style="fill:#63b143;stroke:#ffffff;stroke-width:0.5;stroke-miterlimit:4;stroke-dasharray:none"
       d="M 9.7368957,19.345201 8.8243626,18.42955 9.7368957,17.5139 c 0.5018943,-0.503607 0.9531793,-0.915649 1.0028563,-0.915649 0.04967,0 0.499193,0.410269 0.998927,0.91171 l 0.908608,0.91171 -0.904925,0.91959 c -0.497708,0.505774 -0.947226,0.919589 -0.998927,0.919589 -0.0517,0 -0.504645,-0.412043 -1.0065393,-0.915649 z m 1.8312833,-5.493917 -2.7459287,-2.746967 0.9592484,-0.959248 0.9592483,-0.9592479 2.789018,2.7900409 2.789018,2.79004 -0.913056,0.916174 c -0.502181,0.503896 -0.953232,0.916175 -1.002338,0.916175 -0.04911,0 -1.32495,-1.236135 -2.83521,-2.746967 z M 3.0434133,12.651725 C 1.5448671,11.152613 0.31878322,9.8846947 0.31878322,9.8341304 c 0,-0.050567 0.41404989,-0.4993814 0.92011208,-0.9973724 l 0.9201113,-0.9054383 2.7856348,2.7846143 2.785634,2.784616 -0.9355079,0.938417 c -0.514529,0.516129 -0.9560312,0.938418 -0.9811159,0.938418 -0.025088,0 -1.271692,-1.226547 -2.7702383,-2.72566 z M 4.9010076,7.1799299 C 4.3952142,6.6822029 3.9813837,6.2326694 3.9813837,6.1809668 c 0,-0.051699 0.4122838,-0.5048856 0.9161874,-1.0070733 L 5.8137585,4.2608235 6.772975,5.22004 7.7321923,6.1792573 6.7764123,7.132073 5.8206323,8.0848887 Z"
       id="path4891"
       inkscape:connector-curvature="0" />
  </g>
  <g
     transform="matrix(0.05855166,0,0,0.05855166,36.448586,-2.5904243)"
     id="g3960">
    <path
       inkscape:connector-curvature="0"
       id="path4"
       style="fill:#e9007d"
       d="m 230.724,45.984 h 1.189 a 208.649,208.649 0 0 1 208.649,208.649 v 1.189 A 208.649,208.649 0 0 1 231.913,464.471 h -1.189 A 208.649,208.649 0 0 1 22.075,255.822 v -1.189 A 208.649,208.649 0 0 1 230.724,45.984 Z" />
    <path
       inkscape:connector-curvature="0"
       id="path6"
       style="fill:none"
       d="m 230.724,45.484 h 1.189 c 57.719,0.022 110.07,23.437 147.891,61.258 37.821,37.821 61.236,90.172 61.258,147.891 v 1.189 c -0.022,57.719 -23.437,110.07 -61.258,147.891 -37.821,37.821 -90.172,61.236 -147.891,61.258 h -1.189 C 173.005,464.949 120.654,441.534 82.833,403.713 45.012,365.892 21.597,313.541 21.575,255.822 v -1.189 C 21.597,196.914 45.012,144.563 82.833,106.742 120.654,68.921 173.005,45.506 230.724,45.484 Z M 83.54,107.449 C 45.845,145.144 22.553,197.118 22.575,254.633 v 1.189 c -0.022,57.515 23.27,109.489 60.965,147.184 37.695,37.695 89.669,60.987 147.184,60.965 h 1.189 c 57.515,0.022 109.489,-23.27 147.184,-60.965 37.695,-37.695 60.987,-89.669 60.965,-147.184 v -1.189 C 440.084,197.118 416.792,145.144 379.097,107.449 341.402,69.754 289.428,46.462 231.913,46.484 h -1.189 C 173.209,46.462 121.235,69.754 83.54,107.449 Z" />
    <path
       inkscape:connector-curvature="0"
       id="path8"
       style="fill:#ffffff;stroke-width:10px"
       d="M 412.138,276.885 A 160.929,160.929 0 0 1 251.209,437.814 160.929,160.929 0 0 1 90.28,276.885 160.929,160.929 0 0 1 251.209,115.956 160.929,160.929 0 0 1 412.138,276.885 Z" />
    <path
       inkscape:connector-curvature="0"
       id="path10"
       style="fill:none"
       d="m 417.138,276.885 c 0,45.461 -18.847,87.577 -48.599,117.33 -29.753,29.752 -71.869,48.599 -117.33,48.599 -45.461,0 -87.577,-18.847 -117.33,-48.599 -29.752,-29.753 -48.599,-71.869 -48.599,-117.33 0,-45.461 18.847,-87.577 48.599,-117.33 29.753,-29.752 71.869,-48.599 117.33,-48.599 45.461,0 87.577,18.847 117.33,48.599 29.752,29.753 48.599,71.869 48.599,117.33 z M 361.467,166.627 c -28.492,-28.493 -66.84,-45.671 -110.258,-45.671 -43.418,0 -81.766,17.178 -110.258,45.671 -28.493,28.492 -45.671,66.84 -45.671,110.258 0,43.418 17.178,81.766 45.671,110.258 28.492,28.493 66.84,45.671 110.258,45.671 43.418,0 81.766,-17.178 110.258,-45.671 28.493,-28.492 45.671,-66.84 45.671,-110.258 0,-43.418 -17.178,-81.766 -45.671,-110.258 z" />
    <path
       inkscape:connector-curvature="0"
       id="path12"
       style="text-transform:capitalize;white-space:pre;fill:#e9007d"
       d="m 149.068,322.076 c -7.28,0 -13.61,-1.65 -18.99,-4.95 -5.38,-3.293 -9.51,-8.03 -12.39,-14.21 -2.88,-6.18 -4.32,-13.437 -4.32,-21.77 0,-8.413 1.44,-15.71 4.32,-21.89 2.88,-6.18 6.99,-10.917 12.33,-14.21 5.347,-3.3 11.697,-4.95 19.05,-4.95 7.353,0 13.72,1.65 19.1,4.95 5.38,3.293 9.51,8.01 12.39,14.15 2.88,6.14 4.32,13.417 4.32,21.83 0,8.413 -1.44,15.71 -4.32,21.89 -2.88,6.18 -7.01,10.917 -12.39,14.21 -5.38,3.3 -11.747,4.95 -19.1,4.95 z m 0,-6.25 c 9.02,0 16.03,-3.033 21.03,-9.1 5.007,-6.067 7.51,-14.633 7.51,-25.7 0,-11.067 -2.483,-19.613 -7.45,-25.64 -4.967,-6.02 -11.997,-9.03 -21.09,-9.03 -9.02,0 -16.013,3.03 -20.98,9.09 -4.967,6.067 -7.45,14.593 -7.45,25.58 0,10.993 2.483,19.54 7.45,25.64 4.967,6.107 11.96,9.16 20.98,9.16 z m 78.109,6.25 c -5.607,0 -11.007,-0.89 -16.2,-2.67 -5.193,-1.78 -9.27,-4.187 -12.23,-7.22 -0.98,-0.833 -1.47,-1.933 -1.47,-3.3 0,-0.833 0.247,-1.553 0.74,-2.16 0.487,-0.607 1.033,-0.91 1.64,-0.91 0.76,0 1.633,0.38 2.62,1.14 7.127,5.913 15.427,8.87 24.9,8.87 6.9,0 12.223,-1.383 15.97,-4.15 3.753,-2.767 5.63,-6.69 5.63,-11.77 0,-2.96 -0.91,-5.35 -2.73,-7.17 -1.813,-1.813 -4.123,-3.233 -6.93,-4.26 -2.807,-1.02 -6.56,-2.063 -11.26,-3.13 -6.213,-1.36 -11.233,-2.76 -15.06,-4.2 -3.833,-1.44 -7.073,-3.62 -9.72,-6.54 -2.653,-2.92 -3.98,-6.843 -3.98,-11.77 0,-4.473 1.193,-8.433 3.58,-11.88 2.387,-3.447 5.74,-6.12 10.06,-8.02 4.32,-1.893 9.283,-2.84 14.89,-2.84 5.233,0 10.163,0.853 14.79,2.56 4.62,1.707 8.447,4.15 11.48,7.33 0.987,0.987 1.48,2.087 1.48,3.3 0,0.833 -0.247,1.553 -0.74,2.16 -0.493,0.607 -1.043,0.91 -1.65,0.91 -0.76,0 -1.633,-0.38 -2.62,-1.14 -4.093,-3.333 -7.787,-5.643 -11.08,-6.93 -3.3,-1.287 -7.187,-1.93 -11.66,-1.93 -6.74,0 -12.007,1.44 -15.8,4.32 -3.787,2.88 -5.68,6.897 -5.68,12.05 0,3.107 0.833,5.627 2.5,7.56 1.667,1.933 3.843,3.467 6.53,4.6 2.693,1.14 6.163,2.24 10.41,3.3 l 2.95,0.68 c 6.14,1.52 10.993,2.923 14.56,4.21 3.56,1.287 6.573,3.277 9.04,5.97 2.46,2.693 3.69,6.313 3.69,10.86 0,4.32 -1.193,8.167 -3.58,11.54 -2.387,3.373 -5.76,5.987 -10.12,7.84 -4.36,1.86 -9.343,2.79 -14.95,2.79 z m 48.095,-0.91 c -1.06,0 -1.95,-0.34 -2.67,-1.02 -0.72,-0.687 -1.08,-1.52 -1.08,-2.5 v -73.11 c 0,-0.987 0.36,-1.823 1.08,-2.51 0.72,-0.68 1.61,-1.02 2.67,-1.02 h 43.2 c 0.986,0 1.766,0.267 2.34,0.8 0.566,0.527 0.85,1.283 0.85,2.27 0,0.913 -0.284,1.633 -0.85,2.16 -0.574,0.533 -1.354,0.8 -2.34,0.8 h -40.02 v 30.36 h 37.75 c 0.986,0 1.763,0.263 2.33,0.79 0.566,0.533 0.85,1.293 0.85,2.28 0,0.98 -0.284,1.737 -0.85,2.27 -0.567,0.533 -1.344,0.8 -2.33,0.8 h -37.75 v 31.6 h 40.02 c 0.986,0 1.766,0.247 2.34,0.74 0.566,0.493 0.85,1.233 0.85,2.22 0,0.987 -0.284,1.743 -0.85,2.27 -0.574,0.533 -1.354,0.8 -2.34,0.8 z m 65.601,0.57 c -1.06,0 -1.914,-0.323 -2.56,-0.97 -0.64,-0.64 -0.96,-1.53 -0.96,-2.67 v -73.56 c 0,-0.987 0.36,-1.823 1.08,-2.51 0.72,-0.68 1.61,-1.02 2.67,-1.02 h 26.6 c 8.34,0 14.803,2.01 19.39,6.03 4.586,4.013 6.88,9.697 6.88,17.05 0,7.433 -2.314,13.177 -6.94,17.23 -4.62,4.053 -11.064,6.08 -19.33,6.08 h -23.3 v 30.7 c 0,1.14 -0.324,2.03 -0.97,2.67 -0.647,0.647 -1.5,0.97 -2.56,0.97 z m 26.38,-40.37 c 13.113,0 19.67,-5.76 19.67,-17.28 0,-11.367 -6.557,-17.05 -19.67,-17.05 h -22.85 v 34.33 z" />
    <path
       inkscape:connector-curvature="0"
       id="path14"
       style="fill:none"
       d="m 149.068,322.576 c -7.343,0 -13.804,-1.695 -19.251,-5.024 -5.438,-3.342 -9.673,-8.182 -12.582,-14.425 -2.905,-6.234 -4.367,-13.599 -4.367,-21.981 0,-8.461 1.462,-15.867 4.367,-22.101 2.909,-6.243 7.123,-11.083 12.52,-14.425 5.416,-3.329 11.897,-5.024 19.313,-5.024 7.416,0 13.913,1.695 19.361,5.024 5.438,3.341 9.672,8.161 12.582,14.364 2.905,6.194 4.367,13.58 4.367,22.042 0,8.461 -1.462,15.867 -4.367,22.101 -2.909,6.243 -7.144,11.083 -12.582,14.425 -5.448,3.329 -11.945,5.024 -19.361,5.024 z m 18.839,-5.876 c 5.322,-3.244 9.347,-7.878 12.198,-13.995 2.855,-6.126 4.273,-13.314 4.273,-21.679 0,-8.364 -1.418,-15.532 -4.273,-21.618 -2.85,-6.077 -6.876,-10.691 -12.198,-13.936 -5.312,-3.271 -11.549,-4.876 -18.839,-4.876 -7.29,0 -13.509,1.605 -18.787,4.875 -5.283,3.245 -9.289,7.879 -12.14,13.996 -2.855,6.126 -4.273,13.314 -4.273,21.679 0,8.284 1.418,15.433 4.273,21.559 2.851,6.117 6.876,10.75 12.198,13.995 5.312,3.271 11.512,4.876 18.729,4.876 7.29,0 13.527,-1.605 18.839,-4.876 z M 127.7,306.982 c -5.013,-6.189 -7.562,-14.893 -7.562,-25.956 0,-11.057 2.55,-19.741 7.563,-25.897 5.061,-6.131 12.248,-9.273 21.367,-9.273 9.191,0 16.414,3.121 21.476,9.212 5.014,6.116 7.564,14.821 7.564,25.958 0,11.137 -2.57,19.862 -7.624,26.018 -5.094,6.137 -12.297,9.282 -21.416,9.282 -9.12,0 -16.307,-3.166 -21.368,-9.344 z m 21.368,8.344 c 8.921,0 15.738,-2.921 20.644,-8.918 4.96,-5.978 7.396,-14.385 7.396,-25.382 0,-10.997 -2.416,-19.384 -7.336,-25.322 -4.872,-5.949 -11.709,-8.848 -20.704,-8.848 -8.921,0 -15.72,2.918 -20.593,8.907 -4.921,5.978 -7.337,14.346 -7.337,25.263 0,10.923 2.417,19.312 7.338,25.324 4.873,6.036 11.672,8.976 20.592,8.976 z m 78.109,7.25 c -5.648,0 -11.13,-0.904 -16.362,-2.697 -5.241,-1.796 -9.403,-4.263 -12.414,-7.331 -1.032,-0.921 -1.624,-2.193 -1.624,-3.662 0,-0.914 0.316,-1.791 0.851,-2.474 0.56,-0.668 1.301,-1.096 2.029,-1.096 0.86,0 1.9,0.464 2.939,1.255 7.052,5.87 15.192,8.755 24.581,8.755 6.837,0 12.012,-1.326 15.673,-4.052 3.676,-2.674 5.427,-6.396 5.427,-11.368 0,-2.871 -0.836,-5.069 -2.584,-6.816 -1.772,-1.772 -3.985,-3.139 -6.747,-4.144 -2.788,-1.014 -6.51,-2.048 -11.198,-3.112 -6.227,-1.363 -11.279,-2.773 -15.127,-4.22 -3.884,-1.467 -7.222,-3.713 -9.914,-6.672 -2.705,-3.008 -4.11,-7.099 -4.11,-12.106 0,-4.545 1.238,-8.654 3.669,-12.165 2.428,-3.506 5.895,-6.26 10.27,-8.193 4.374,-1.91 9.437,-2.882 15.091,-2.882 5.276,0 10.292,0.872 14.963,2.591 4.668,1.731 8.581,4.227 11.661,7.445 1.038,1.062 1.626,2.339 1.626,3.654 0,0.914 -0.305,1.801 -0.852,2.475 -0.552,0.68 -1.31,1.095 -2.038,1.095 -0.86,0 -1.896,-0.461 -2.936,-1.252 -4.067,-3.315 -7.694,-5.586 -10.946,-6.852 -3.25,-1.273 -7.046,-1.896 -11.478,-1.896 -6.674,0 -11.79,1.38 -15.497,4.218 -3.713,2.788 -5.483,6.606 -5.483,11.652 0,3.029 0.774,5.373 2.379,7.233 1.627,1.888 3.706,3.36 6.346,4.467 2.671,1.131 6.102,2.218 10.332,3.274 l 2.953,0.681 c 6.15,1.522 11.028,2.933 14.61,4.225 3.613,1.313 6.726,3.37 9.239,6.103 2.512,2.781 3.821,6.57 3.821,11.197 0,4.394 -1.24,8.393 -3.672,11.829 -2.429,3.432 -5.917,6.126 -10.332,8.011 -4.412,1.876 -9.493,2.83 -15.146,2.83 z m 14.754,-3.75 c 4.304,-1.82 7.563,-4.355 9.908,-7.669 2.342,-3.31 3.488,-7.005 3.488,-11.251 0,-4.467 -1.151,-7.918 -3.559,-10.523 -2.421,-2.653 -5.334,-4.576 -8.841,-5.837 -3.552,-1.282 -8.377,-2.677 -14.506,-4.194 l -2.946,-0.679 c -4.262,-1.064 -7.778,-2.178 -10.493,-3.327 -2.734,-1.159 -5.007,-2.755 -6.714,-4.733 -1.729,-2.006 -2.621,-4.702 -2.621,-7.887 0,-5.26 2.016,-9.476 5.877,-12.448 3.879,-2.922 9.297,-4.422 16.103,-4.422 4.514,0 8.492,0.663 11.842,1.964 3.334,1.308 7.093,3.656 11.21,7.005 0.931,0.725 1.648,1.031 2.308,1.031 0.486,0 0.828,-0.191 1.262,-0.725 0.439,-0.54 0.628,-1.093 0.628,-1.845 0,-1.111 -0.398,-2.034 -1.334,-2.946 -2.986,-3.142 -6.727,-5.532 -11.299,-7.215 -4.583,-1.695 -9.427,-2.529 -14.617,-2.529 -5.56,0 -10.422,0.921 -14.689,2.798 -4.265,1.866 -7.504,4.459 -9.85,7.847 -2.343,3.383 -3.491,7.194 -3.491,11.595 0,4.847 1.249,8.602 3.85,11.434 2.601,2.88 5.744,4.995 9.526,6.408 3.806,1.433 8.792,2.823 14.991,4.18 4.711,1.069 8.498,2.122 11.324,3.148 2.852,1.049 5.259,2.522 7.113,4.376 1.892,1.893 2.876,4.475 2.876,7.524 0,5.188 -2.003,9.312 -5.833,12.172 -3.833,2.808 -9.304,4.248 -16.267,4.248 -9.557,0 -18.011,-3.024 -25.213,-8.98 -0.931,-0.725 -1.647,-1.03 -2.307,-1.03 -0.486,0 -0.837,0.178 -1.25,0.723 -0.451,0.53 -0.63,1.095 -0.63,1.847 0,1.265 0.38,2.175 1.294,2.919 2.908,2.992 6.923,5.364 12.068,7.128 5.154,1.767 10.472,2.643 16.038,2.643 5.561,0 10.446,-0.906 14.754,-2.75 z m 33.341,2.84 c -1.149,-0.016 -2.213,-0.426 -3.015,-1.158 -0.777,-0.769 -1.214,-1.783 -1.235,-2.862 v -73.11 c 0.02,-1.086 0.46,-2.105 1.237,-2.874 0.802,-0.731 1.864,-1.14 3.013,-1.156 h 43.2 c 1.067,0.013 2.018,0.348 2.681,0.934 0.629,0.622 1.009,1.561 1.009,2.636 0,1.005 -0.382,1.908 -1.01,2.526 -0.663,0.587 -1.613,0.921 -2.68,0.934 h -39.52 v 29.36 h 37.25 c 1.066,0.013 2.016,0.345 2.673,0.926 0.629,0.627 1.007,1.569 1.007,2.644 0,1.068 -0.379,2.007 -1.008,2.634 -0.657,0.588 -1.605,0.922 -2.672,0.936 h -37.25 v 30.6 h 39.52 c 1.061,0.012 2.007,0.321 2.668,0.863 0.636,0.592 1.022,1.52 1.022,2.597 0,1.075 -0.38,2.014 -1.01,2.636 -0.663,0.587 -1.613,0.921 -2.68,0.934 z m 43.2,-1 c 0.905,0.013 1.515,-0.186 2,-0.666 0.502,-0.432 0.69,-1.005 0.69,-1.904 0,-0.897 -0.181,-1.448 -0.677,-1.842 -0.487,-0.443 -1.102,-0.63 -2.013,-0.618 h -40.52 v -32.6 h 38.25 c 0.905,0.014 1.51,-0.185 1.987,-0.664 0.504,-0.439 0.693,-1.014 0.693,-1.906 0,-0.899 -0.188,-1.477 -0.692,-1.915 -0.476,-0.472 -1.082,-0.668 -1.988,-0.655 h -38.25 v -31.36 h 40.52 c 0.905,0.013 1.515,-0.186 2,-0.666 0.503,-0.436 0.69,-0.973 0.69,-1.794 0,-0.899 -0.188,-1.472 -0.69,-1.904 -0.485,-0.479 -1.095,-0.679 -2,-0.666 h -43.2 c -0.971,-0.016 -1.688,0.254 -2.326,0.883 -0.662,0.604 -0.944,1.259 -0.924,2.147 v 73.11 c -0.021,0.881 0.261,1.532 0.924,2.137 0.638,0.628 1.355,0.899 2.326,0.883 z m 22.401,1.57 c -1.148,0 -2.179,-0.412 -2.914,-1.117 -0.698,-0.732 -1.091,-1.798 -1.106,-3.023 v -73.56 c 0.02,-1.086 0.46,-2.105 1.237,-2.874 0.802,-0.731 1.864,-1.14 3.013,-1.156 h 26.6 c 8.414,0.011 15.042,2.083 19.719,6.154 4.654,4.107 7.051,9.979 7.051,17.426 0,7.526 -2.417,13.458 -7.11,17.606 -4.71,4.104 -11.319,6.192 -19.66,6.204 h -22.8 v 30.2 c -0.015,1.226 -0.413,2.292 -1.117,3.024 -0.736,0.704 -1.764,1.116 -2.913,1.116 z m 2.206,-1.824 c 0.587,-0.547 0.839,-1.262 0.824,-2.316 v -31.2 h 23.8 c 8.191,0.012 14.47,-1.953 19,-5.956 4.559,-3.958 6.77,-9.514 6.77,-16.854 0,-7.259 -2.19,-12.755 -6.709,-16.674 -4.497,-3.969 -10.795,-5.917 -19.061,-5.906 h -26.6 c -0.971,-0.016 -1.688,0.254 -2.326,0.883 -0.662,0.604 -0.944,1.259 -0.924,2.147 v 73.56 c -0.015,1.055 0.232,1.769 0.814,2.316 0.557,0.59 1.234,0.824 2.206,0.824 0.971,0 1.648,-0.234 2.206,-0.824 z m 0.824,-73.876 h 23.35 c 6.626,0.01 11.722,1.474 15.08,4.385 3.367,2.918 5.09,7.392 5.09,13.165 0,5.849 -1.721,10.378 -5.088,13.336 -3.357,2.949 -8.455,4.434 -15.082,4.444 h -23.35 z m 23.35,34.33 c 6.486,0.01 11.223,-1.385 14.422,-4.196 3.191,-2.802 4.748,-6.913 4.748,-12.584 0,-5.594 -1.556,-9.645 -4.745,-12.41 -3.199,-2.773 -7.938,-4.15 -14.425,-4.14 h -22.35 v 33.33 z" />
  </g>
</svg>
