<?xml version="1.0" encoding="UTF-8" standalone="no"?>
<!-- Created with Inkscape (http://www.inkscape.org/) -->

<svg
   xmlns:dc="http://purl.org/dc/elements/1.1/"
   xmlns:cc="http://creativecommons.org/ns#"
   xmlns:rdf="http://www.w3.org/1999/02/22-rdf-syntax-ns#"
   xmlns:svg="http://www.w3.org/2000/svg"
   xmlns="http://www.w3.org/2000/svg"
   xmlns:sodipodi="http://sodipodi.sourceforge.net/DTD/sodipodi-0.dtd"
   xmlns:inkscape="http://www.inkscape.org/namespaces/inkscape"
   width="30.910475mm"
   height="30.636389mm"
   viewBox="0 0 30.910474 30.636389"
   version="1.1"
   id="svg8"
   inkscape:version="0.92.5 (2060ec1f9f, 2020-04-08)"
   sodipodi:docname="linenotify_small.svg">
  <defs
     id="defs2" />
  <sodipodi:namedview
     id="base"
     pagecolor="#ffffff"
     bordercolor="#666666"
     borderopacity="1.0"
     inkscape:pageopacity="0.0"
     inkscape:pageshadow="2"
     inkscape:zoom="1.3459876"
     inkscape:cx="67.819231"
     inkscape:cy="-7.2494606"
     inkscape:document-units="mm"
     inkscape:current-layer="layer1"
     showgrid="false"
     fit-margin-top="0"
     fit-margin-left="0"
     fit-margin-right="0"
     fit-margin-bottom="0"
     inkscape:window-width="1368"
     inkscape:window-height="836"
     inkscape:window-x="72"
     inkscape:window-y="27"
     inkscape:window-maximized="1" />
  <metadata
     id="metadata5">
    <rdf:RDF>
      <cc:Work
         rdf:about="">
        <dc:format>image/svg+xml</dc:format>
        <dc:type
           rdf:resource="http://purl.org/dc/dcmitype/StillImage" />
        <dc:title />
      </cc:Work>
    </rdf:RDF>
  </metadata>
  <g
     inkscape:label="圖層 1"
     inkscape:groupmode="layer"
     id="layer1"
     transform="translate(-25.523264,-50.012751)">
    <path
       inkscape:connector-curvature="0"
       id="path918"
       d="m 37.169519,80.435653 c -3.948288,-1.00469 -8.270903,-4.53345 -10.061122,-8.21337 -3.733455,-7.67437 -0.648458,-16.859135 6.907473,-20.565175 9.451888,-4.63597 20.440207,0.96788 22.215039,11.329275 1.124379,6.56408 -2.512906,13.36675 -8.753727,16.37174 -2.197862,1.05829 -2.838022,1.19881 -5.820834,1.27775 -1.843264,0.0488 -3.862337,-0.0413 -4.486829,-0.20022 z m 5.548865,-4.49782 c 0.54698,-0.32311 1.163383,-0.95811 1.369785,-1.41111 0.352473,-0.7736 0.566903,-0.82364 3.528986,-0.82364 3.206195,0 4.269749,-0.18345 4.269749,-0.73645 0,-0.16951 -0.585534,-1.22352 -1.301186,-2.34227 -1.256802,-1.9647 -1.308225,-2.17269 -1.507515,-6.0976 -0.174524,-3.43714 -0.335063,-4.27181 -1.041489,-5.41483 -0.919703,-1.488105 -3.320565,-3.400515 -4.269054,-3.400515 -0.332778,0 -1.008686,-0.3175 -1.502019,-0.70556 -1.060112,-0.83388 -1.77719,-0.89451 -2.354362,-0.19906 -0.231193,0.27857 -0.876437,0.60666 -1.433877,0.7291 -1.465482,0.32187 -3.646279,2.01315 -4.617954,3.581365 -0.716987,1.15717 -0.868314,1.95317 -1.029185,5.41359 -0.183346,3.94391 -0.2252,4.11366 -1.502091,6.09227 -0.72242,1.11943 -1.313491,2.174 -1.313491,2.34351 0,0.54432 1.048702,0.73644 4.019796,0.73644 2.790266,0 2.944254,0.0428 3.939897,1.09499 1.696044,1.79237 3.077413,2.12425 4.74401,1.13977 z m -2.825925,-1.70559 c -0.378642,-0.45624 -0.232781,-0.52916 1.058334,-0.52916 1.291115,0 1.436975,0.0729 1.058333,0.52916 -0.241543,0.29104 -0.717793,0.52917 -1.058333,0.52917 -0.340541,0 -0.816791,-0.23813 -1.058334,-0.52917 z m -6.880654,-2.64824 c -0.120734,-0.19535 0.108022,-0.81517 0.508346,-1.37737 0.614118,-0.86245 0.727864,-1.55297 0.727864,-4.41865 0,-6.01113 2.113483,-8.779405 6.702778,-8.779405 2.229427,0 3.746566,0.66833 5.059699,2.228895 1.23464,1.46729 1.638781,3.13796 1.641111,6.78416 0.0016,2.42663 0.147458,3.31752 0.68924,4.20841 0.378,0.62157 0.606756,1.26041 0.508347,1.41964 -0.265091,0.42892 -15.570932,0.36545 -15.837385,-0.0657 z"
       style="fill:#008000;stroke-width:0.35277778"
       sodipodi:nodetypes="cssscccccsscscsccccsssssccscscccsscccccc" />
    <path
       style="opacity:1;fill:#ffffff;stroke:none;stroke-width:1.4039979;stroke-linejoin:round;stroke-miterlimit:4;stroke-dasharray:none"
       d="m 52.811663,98.003233 c -1.430176,-0.855008 -3.937629,-2.840301 -5.572116,-4.411757 -4.088798,-3.931124 -5.866409,-4.428794 -15.83603,-4.433553 -8.308491,-0.004 -14.253401,-0.893399 -14.253401,-2.132488 0,-0.319491 2.004478,-3.927915 4.454396,-8.018721 5.079889,-8.482263 5.56567,-10.381037 6.335406,-24.763245 0.295238,-5.516396 1.006329,-11.836179 1.580203,-14.043963 1.986553,-7.642582 9.606558,-15.268596 18.630014,-18.644703 2.232731,-0.835372 5.182067,-2.375073 6.554079,-3.421558 2.852515,-2.175719 3.926678,-2.025692 9.132051,1.275457 1.860285,1.179758 3.831692,2.145015 4.380904,2.145015 2.037309,0 7.265951,3.249889 11.171833,6.94391 7.228789,6.836687 8.542469,10.6296 9.431743,27.231739 0.670541,12.518537 1.352786,15.038407 6.334243,23.39552 5.836482,9.791545 6.117682,9.519793 -10.385565,10.036837 -6.92417,0.216933 -12.87022,0.723665 -13.213444,1.126067 -0.343225,0.402411 -1.544367,1.988458 -2.669206,3.524565 -3.965295,5.415094 -10.971898,7.241765 -16.07511,4.190878 z m 8.95129,-5.74905 c 2.445082,-1.979907 1.22962,-3.092116 -3.379173,-3.092116 -2.235814,0 -4.233728,0.380564 -4.532057,0.863269 -0.708334,1.14611 2.37864,3.594424 4.532057,3.594424 0.931018,0 2.451645,-0.614508 3.379173,-1.365577 z M 87.857667,81.902351 C 88.590388,81.16963 88.347691,80.108815 86.67055,76.713526 84.718593,72.761884 84.51762,71.526993 83.957698,60.044282 83.129786,43.065728 81.855918,38.871831 75.718651,32.919233 70.59091,27.945784 66.386711,26.406615 58.012306,26.436887 c -5.682662,0.02054 -7.781885,0.350924 -10.772759,1.695447 -4.650125,2.090427 -8.161056,5.414379 -10.45093,9.894353 -2.662995,5.209957 -3.301563,8.747659 -3.953439,21.902279 -0.544447,10.986738 -0.764901,12.326091 -2.609495,15.853811 -3.016727,5.769382 -2.687664,6.237936 4.762546,6.781395 11.755163,0.857487 51.852065,0.355553 52.869438,-0.661821 z"
       id="path816"
       inkscape:connector-curvature="0"
       transform="matrix(0.26458333,0,0,0.26458333,25.523264,50.012751)" />
  </g>
</svg>
