<?xml version="1.0" encoding="UTF-8" standalone="no"?>
<!-- Created with Inkscape (http://www.inkscape.org/) -->

<svg
   xmlns:dc="http://purl.org/dc/elements/1.1/"
   xmlns:cc="http://creativecommons.org/ns#"
   xmlns:rdf="http://www.w3.org/1999/02/22-rdf-syntax-ns#"
   xmlns:svg="http://www.w3.org/2000/svg"
   xmlns="http://www.w3.org/2000/svg"
   xmlns:sodipodi="http://sodipodi.sourceforge.net/DTD/sodipodi-0.dtd"
   xmlns:inkscape="http://www.inkscape.org/namespaces/inkscape"
   width="10.583334mm"
   height="6.8145256mm"
   viewBox="0 0 10.583334 6.8145255"
   version="1.1"
   id="svg8"
   sodipodi:docname="google.svg"
   inkscape:export-filename="/home/teacher/圖片/googel.png"
   inkscape:export-xdpi="95.23658"
   inkscape:export-ydpi="95.23658"
   inkscape:version="0.92.3 (2405546, 2018-03-11)">
  <sodipodi:namedview
     id="base"
     pagecolor="#ffffff"
     bordercolor="#666666"
     borderopacity="1.0"
     inkscape:pageopacity="0.0"
     inkscape:pageshadow="2"
     inkscape:zoom="6.5129051"
     inkscape:cx="34.33054"
     inkscape:cy="7.5527188"
     inkscape:document-units="mm"
     inkscape:current-layer="layer1"
     showgrid="false"
     fit-margin-top="0"
     fit-margin-left="0"
     fit-margin-right="0"
     fit-margin-bottom="0"
     inkscape:window-width="1533"
     inkscape:window-height="836"
     inkscape:window-x="67"
     inkscape:window-y="27"
     inkscape:window-maximized="1" />
  <defs
     id="defs2" />
  <metadata
     id="metadata5">
    <rdf:RDF>
      <cc:Work
         rdf:about="">
        <dc:format>image/svg+xml</dc:format>
        <dc:type
           rdf:resource="http://purl.org/dc/dcmitype/StillImage" />
        <dc:title />
      </cc:Work>
    </rdf:RDF>
  </metadata>
  <g
     transform="translate(388.98821,-538.16694)"
     id="layer1"
     inkscape:groupmode="layer"
     inkscape:label="圖層 1">
    <path
       style="font-style:normal;font-weight:normal;font-size:35.90664291px;line-height:1.25;font-family:sans-serif;letter-spacing:0px;word-spacing:0px;fill:#0000ff;fill-opacity:1;stroke:none;stroke-width:0.19904874"
       d="m -385.42082,538.44863 c -2.38735,-2e-4 -3.69329,2.26609 -3.1376,4.03351 0.2705,1.98131 3.23596,2.9801 5.13832,1.88113 1.184,-0.67971 0.30243,-2.19796 0.56914,-3.23808 -1.30154,0.15157 -3.69121,-0.61175 -3.05163,1.17189 0.72373,-0.16131 2.33702,1.02336 0.58048,1.10359 -1.93196,-0.11201 -2.06904,-2.83179 -0.50821,-3.46206 0.75886,-0.28031 1.56381,0.0901 2.0097,0.61593 0.48994,-0.51659 1.44685,-1.08357 0.47468,-1.53724 -0.56966,-0.41065 -1.32945,-0.60426 -2.07488,-0.56867 z"
       id="text833"
       inkscape:connector-curvature="0" />
    <text
       xml:space="preserve"
       style="font-style:normal;font-weight:normal;font-size:7.96194935px;line-height:1.25;font-family:sans-serif;letter-spacing:0px;word-spacing:0px;fill:#ffffff;fill-opacity:1;stroke:none;stroke-width:0.19904874;"
       x="-356.37558"
       y="593.61407"
       id="text839"
       transform="scale(1.0905802,0.91694313)"><tspan
         sodipodi:role="line"
         id="tspan837"
         x="-356.37558"
         y="593.61407"
         style="fill:#ffffff;stroke-width:0.19904874;">G</tspan></text>
    <path
       style="font-style:normal;font-weight:normal;font-size:40.53910828px;line-height:1.25;font-family:sans-serif;letter-spacing:0px;word-spacing:0px;fill:#ff0000;fill-opacity:1;stroke:#ffffff;stroke-width:0.06323182;stroke-miterlimit:4;stroke-dasharray:none"
       d="m -379.96836,542.46603 c 0.0178,0.54005 -0.032,1.09107 0.0179,1.62615 0.0398,0.27055 0.45137,0.26143 0.33632,-0.0524 -0.11105,-0.19528 -0.0625,-0.54689 -0.0717,-0.86439 -0.0526,-0.2487 0.11754,-0.81403 -0.11019,-0.81379 -0.0675,0.0289 -0.21219,-0.0791 -0.17226,0.10443 z m -2.27337,0.4021 c -0.43336,0.0149 -0.57258,0.90851 -0.26071,1.27024 0.25007,0.32471 0.69182,0.0652 0.7208,-0.41026 0.0627,-0.41486 -0.13741,-0.88933 -0.46009,-0.85998 z m 0.90159,0 c -0.43334,0.0149 -0.57257,0.90847 -0.26071,1.27024 0.25003,0.3246 0.6916,0.0654 0.72079,-0.40995 0.0628,-0.41492 -0.13731,-0.88965 -0.46008,-0.86029 z m 0.86349,-2e-4 c -0.29088,-0.0169 -0.47163,0.51675 -0.28539,0.82725 -0.0838,0.11181 -0.0602,0.30122 -0.0288,0.41811 -0.16811,0.22348 -0.0335,0.62252 0.18093,0.64899 0.25299,0.0975 0.65082,-0.0745 0.63148,-0.52427 -0.0244,-0.36756 -0.35542,-0.34955 -0.54388,-0.33541 -0.10205,-0.054 0.11351,0.016 0.15195,-0.0248 0.19579,-0.0467 0.32481,-0.35651 0.26538,-0.6237 0.26528,-0.034 0.071,-0.55102 -0.18079,-0.35703 -0.0646,0.006 -0.1251,-0.0402 -0.19091,-0.0292 z m 1.29079,2e-4 c -0.4624,0.0306 -0.57216,1.05729 -0.17584,1.34071 0.18792,0.14278 0.42093,0.0644 0.58384,-0.11197 -0.0647,-0.27681 -0.13845,-0.33853 -0.30333,-0.18265 -0.0967,0.0335 -0.20412,-0.0481 -0.228,-0.18804 0.16233,-0.0636 0.48568,0.13548 0.53355,-0.11493 0.0418,-0.3665 -0.11872,-0.78 -0.41022,-0.74312 z m -1.26346,0.35091 c 0.19747,0.0419 0.0207,0.52117 -0.0965,0.25392 -0.0361,-0.10376 -0.002,-0.27237 0.0965,-0.25392 z m 1.30062,0.013 c 0.10115,0.002 0.1466,0.23153 -0.006,0.14562 -0.24814,0.0981 -0.12324,-0.15248 0.006,-0.14562 z m -3.06383,0.006 c 0.23566,0.0506 0.19838,0.76664 -0.0643,0.6598 -0.15721,-0.11546 -0.14648,-0.6586 0.0643,-0.6598 z m 0.90159,0 c 0.22132,0.0529 0.20826,0.6951 -0.0339,0.67265 -0.19377,-0.0579 -0.18351,-0.68062 0.0339,-0.67265 z m 0.76169,1.0308 c 0.0884,0.0365 0.23112,-0.049 0.2927,0.0462 -0.0338,0.17691 -0.37979,0.19904 -0.3318,-0.0247 0.009,-0.0166 0.0189,-0.0458 0.0391,-0.0215 z"
       id="text874"
       inkscape:connector-curvature="0" />
    <text
       xml:space="preserve"
       style="font-style:normal;font-weight:normal;font-size:1.77536011px;line-height:1.25;font-family:sans-serif;letter-spacing:0px;word-spacing:0px;fill:#ffffff;fill-opacity:1;stroke:none;stroke-width:0.06323182;stroke-miterlimit:4;stroke-dasharray:none"
       x="-456.24057"
       y="456.40652"
       id="text850"
       transform="scale(0.83875096,1.192249)"><tspan
         sodipodi:role="line"
         id="tspan848"
         x="-456.24057"
         y="456.40652"
         style="fill:#ffffff;stroke:none;stroke-width:0.06323182;stroke-miterlimit:4;stroke-dasharray:none">oogle</tspan></text>
  </g>
</svg>
