<?xml version="1.0" encoding="UTF-8" standalone="no"?>
<!-- Created with Inkscape (http://www.inkscape.org/) -->

<svg
   xmlns:dc="http://purl.org/dc/elements/1.1/"
   xmlns:cc="http://creativecommons.org/ns#"
   xmlns:rdf="http://www.w3.org/1999/02/22-rdf-syntax-ns#"
   xmlns:svg="http://www.w3.org/2000/svg"
   xmlns="http://www.w3.org/2000/svg"
   xmlns:sodipodi="http://sodipodi.sourceforge.net/DTD/sodipodi-0.dtd"
   xmlns:inkscape="http://www.inkscape.org/namespaces/inkscape"
   width="7.9375mm"
   height="5.2916665mm"
   viewBox="0 0 7.9375 5.2916665"
   version="1.1"
   id="svg8"
   sodipodi:docname="口.svg"
   inkscape:export-filename="/home/teacher/圖片/口.png"
   inkscape:export-xdpi="81.599998"
   inkscape:export-ydpi="81.599998"
   inkscape:version="0.92.3 (2405546, 2018-03-11)">
  <sodipodi:namedview
     id="base"
     pagecolor="#ffffff"
     bordercolor="#666666"
     borderopacity="1.0"
     inkscape:pageopacity="0.0"
     inkscape:pageshadow="2"
     inkscape:zoom="17.63681"
     inkscape:cx="17.064511"
     inkscape:cy="8.6260165"
     inkscape:document-units="mm"
     inkscape:current-layer="layer1"
     showgrid="false"
     fit-margin-top="0"
     fit-margin-left="0"
     fit-margin-right="0"
     fit-margin-bottom="0"
     inkscape:window-width="1533"
     inkscape:window-height="836"
     inkscape:window-x="67"
     inkscape:window-y="27"
     inkscape:window-maximized="1" />
  <defs
     id="defs2" />
  <metadata
     id="metadata5">
    <rdf:RDF>
      <cc:Work
         rdf:about="">
        <dc:format>image/svg+xml</dc:format>
        <dc:type
           rdf:resource="http://purl.org/dc/dcmitype/StillImage" />
        <dc:title></dc:title>
      </cc:Work>
    </rdf:RDF>
  </metadata>
  <g
     transform="translate(389.37087,-538.41039)"
     id="layer1"
     inkscape:groupmode="layer"
     inkscape:label="圖層 1">
    <g
       id="g1013">
      <path
         sodipodi:nodetypes="ccccccccccccccccccscccccccccccccccccccccccccscccccccccccccccccccccccccccsccccccccccccccccccsccccccccccccccccssccccccccsccccccccccc"
         style="fill:#ff0000;fill-opacity:1;stroke-width:0.00250001"
         d="m -385.42605,543.69876 c -0.32181,-0.0231 -0.61617,-0.0789 -0.92037,-0.17474 -0.13129,-0.0413 -0.33255,-0.11653 -0.43051,-0.16081 -0.24282,-0.10973 -0.4661,-0.27126 -0.68011,-0.49204 -0.0507,-0.0523 -0.18003,-0.20245 -0.22737,-0.26398 -0.17027,-0.22128 -0.3196,-0.46333 -0.46479,-0.75335 -0.13056,-0.26078 -0.2563,-0.5737 -0.35562,-0.88496 -0.0191,-0.0601 -0.0724,-0.24101 -0.079,-0.26857 -0.003,-0.01 -0.005,-0.0128 -0.0356,-0.0363 -0.13082,-0.1012 -0.28135,-0.23374 -0.43424,-0.3824 -0.026,-0.0253 -0.0482,-0.0463 -0.0493,-0.0468 -9.2e-4,-4.6e-4 -0.005,0.006 -0.008,0.0161 -0.0266,0.0695 -0.0701,0.14705 -0.11568,0.20629 -0.0195,0.0254 -0.0569,0.0661 -0.0818,0.0891 -0.0238,0.0221 -0.072,0.0589 -0.0729,0.0558 -4.3e-4,-10e-4 0.0117,-0.0326 0.027,-0.0692 0.0746,-0.17806 0.0959,-0.23532 0.12757,-0.34275 0.0366,-0.12454 0.0659,-0.30089 0.0793,-0.47905 0.002,-0.0299 0.005,-0.0543 0.005,-0.0543 0.002,0 0.0132,0.0165 0.0247,0.0363 0.0448,0.0766 0.0691,0.20077 0.0613,0.31281 -0.003,0.0457 -0.009,0.0863 -0.0189,0.12874 -0.005,0.0245 -0.006,0.0311 -0.004,0.0329 0.012,0.01 0.12645,0.0726 0.15655,0.0869 0.1631,0.0776 0.3285,0.1093 0.46434,0.0888 0.0705,-0.0107 0.14726,-0.04 0.21036,-0.0804 0.15973,-0.10225 0.33528,-0.26796 0.70176,-0.66245 0.0617,-0.0663 0.11439,-0.12409 0.29564,-0.32364 0.30082,-0.33118 0.49973,-0.5322 0.61482,-0.62131 0.0457,-0.0354 0.0751,-0.0551 0.10775,-0.0723 0.1029,-0.0543 0.20598,-0.0766 0.33393,-0.0723 0.11129,0.003 0.21373,0.0231 0.41423,0.0784 0.25001,0.0689 0.33933,0.0798 0.46134,0.0562 0.0882,-0.0171 0.14757,-0.0389 0.33918,-0.12467 0.17697,-0.0792 0.27592,-0.10713 0.38103,-0.10761 0.0779,-3.5e-4 0.15456,0.0208 0.25893,0.0715 0.21112,0.10257 0.52793,0.32745 0.83658,0.59385 0.20799,0.17953 0.39104,0.35123 0.55388,0.51955 0.17675,0.18269 0.27174,0.26998 0.39791,0.36566 0.23617,0.17911 0.48226,0.29466 0.71284,0.33472 l 0.0287,0.005 -9.1e-4,-0.005 c -0.007,-0.0339 -0.007,-0.15617 -4e-4,-0.20713 0.0144,-0.10426 0.0473,-0.19836 0.0945,-0.27012 0.0138,-0.021 0.0473,-0.0615 0.0508,-0.0615 9.1e-4,0 0.002,0.0166 8.5e-4,0.0369 -6.3e-4,0.0203 7e-5,0.0682 0.002,0.10644 0.007,0.19931 0.0336,0.35399 0.0876,0.52271 0.0174,0.0545 0.0427,0.13074 0.0539,0.16249 0.005,0.0163 0.0159,0.0464 0.0227,0.0671 0.006,0.0207 0.0187,0.0564 0.0263,0.0792 0.0145,0.0435 0.0279,0.0929 0.0258,0.0953 -0.004,0.004 -0.0795,-0.0375 -0.11259,-0.0627 -0.0225,-0.0172 -0.0659,-0.0587 -0.0884,-0.0848 -0.0156,-0.018 -0.0485,-0.065 -0.0661,-0.0941 -0.0137,-0.0227 -0.0491,-0.0988 -0.0561,-0.1204 l -0.005,-0.0155 -0.007,0.006 c -0.11774,0.10268 -0.26872,0.206 -0.40763,0.27892 l -0.0233,0.0123 -0.0191,0.0816 c -0.13943,0.59348 -0.34395,1.13816 -0.58229,1.55076 -0.0905,0.1567 -0.17496,0.2774 -0.28161,0.40255 -0.0845,0.0991 -0.16768,0.18174 -0.24552,0.2438 -0.0975,0.0777 -0.31874,0.21769 -0.47615,0.30122 -0.20326,0.10784 -0.41898,0.19812 -0.6013,0.25165 -0.2026,0.0594 -0.41383,0.0984 -0.62017,0.1144 -0.0641,0.005 -0.33219,0.007 -0.3863,0.003 z m 0.0861,-1.16543 c 0.0977,-0.0145 0.18042,-0.0533 0.25599,-0.12027 0.0253,-0.0224 0.0357,-0.0339 0.0581,-0.0637 0.0248,-0.0332 0.0374,-0.0545 0.0374,-0.0634 0,-0.004 -0.003,-0.0109 -0.005,-0.015 -0.005,-0.007 -0.006,-0.007 -0.0297,-0.007 -0.0132,2e-4 -0.0429,0.002 -0.066,0.005 -0.15727,0.0166 -0.19704,0.0188 -0.29526,0.0168 -0.0483,-9.6e-4 -0.1218,-0.005 -0.18762,-0.01 -0.0596,-0.004 -0.13362,-0.01 -0.16468,-0.01 l -0.0564,-0.002 -0.005,0.006 c -0.009,0.01 -0.008,0.022 0.005,0.0477 0.0523,0.10046 0.15981,0.18119 0.2776,0.20854 0.0158,0.003 0.0381,0.007 0.0497,0.01 0.0249,0.003 0.0989,0.002 0.12683,-0.002 z m -0.68651,-0.19193 c 0.0302,-0.01 0.0573,-0.0327 0.0701,-0.0607 0.005,-0.01 0.005,-0.0159 0.005,-0.0374 4e-5,-0.0309 -0.005,-0.0448 -0.0234,-0.0662 -0.0532,-0.0615 -0.16012,-0.0466 -0.19186,0.0266 -0.006,0.0141 -0.007,0.0191 -0.007,0.038 0,0.0183 9.2e-4,0.0243 0.006,0.0379 0.0116,0.0283 0.0361,0.0507 0.0667,0.0608 0.0177,0.006 0.0557,0.006 0.0733,10e-4 z m -0.53213,-0.13311 c 0.0163,0.003 0.051,10e-4 0.0667,-0.004 0.0508,0.37376 -0.26628,-0.25336 -0.0667,0.004 z m -0.18498,-2.55658 c 0.14626,-0.12943 0.24976,-0.21065 0.34596,-0.27151 0.087,-0.055 0.16618,-0.0906 0.22961,-0.10342 0.0473,-0.01 0.12186,-0.003 0.21023,0.019 0.0633,0.0156 0.0939,0.0265 0.27574,0.0985 0.0852,0.0337 0.14122,0.0507 0.20363,0.0616 0.0322,0.005 0.1311,0.005 0.1594,-10e-4 0.10221,-0.0221 0.20759,-0.0733 0.34557,-0.16777 0.087,-0.0595 0.20678,-0.15941 0.26471,-0.22059 0.0119,-0.0125 0.0134,-0.0153 0.0134,-0.0245 0,-0.0123 -0.007,-0.0214 -0.0164,-0.0214 -0.004,0 -0.0114,0.002 -0.0176,0.005 -0.006,0.003 -0.0527,0.0239 -0.10328,0.0467 -0.33328,0.15012 -0.46854,0.19138 -0.57427,0.17521 -0.057,-0.008 -0.10387,-0.0253 -0.23323,-0.0822 -0.12715,-0.056 -0.21015,-0.0849 -0.28857,-0.10056 -0.14289,-0.0285 -0.24805,-0.0213 -0.3479,0.024 -0.0616,0.0279 -0.14297,0.082 -0.20245,0.13426 -0.11976,0.10532 -0.25075,0.27087 -0.33155,0.41909 -0.0205,0.0376 -0.0224,0.0456 -0.0129,0.0565 0.0112,0.0129 0.0144,0.011 0.08,-0.047 z m 3.03349,-0.0111 c 0.0128,-0.0116 0.0161,-0.0311 0.0104,-0.0621 -0.006,-0.0352 -0.0281,-0.0681 -0.0538,-0.0814 -0.0172,-0.008 -0.0501,-0.0125 -0.0624,-0.006 -0.0169,0.008 -0.0232,0.0301 -0.0184,0.0644 0.005,0.0419 0.0335,0.0756 0.072,0.0877 0.005,0.002 0.0184,0.003 0.0282,0.003 0.0146,1.5e-4 0.0188,-8.2e-4 0.0239,-0.005 z"
         id="path958"
         inkscape:connector-curvature="0" />
      <path
         style="fill:#333333;fill-opacity:1;stroke-width:0.00250001"
         d="m -385.36302,543.69883 c -0.006,-4.3e-4 -0.0331,-0.002 -0.0594,-0.003 -0.31884,-0.0192 -0.66889,-0.09 -0.99832,-0.2018 -0.0937,-0.0317 -0.2752,-0.10162 -0.34109,-0.13129 -0.12452,-0.0561 -0.25099,-0.13038 -0.36752,-0.21609 -0.20545,-0.15111 -0.40016,-0.35001 -0.58413,-0.59669 -0.31372,-0.42064 -0.58954,-0.98517 -0.78584,-1.60831 -0.0169,-0.0534 -0.0611,-0.20554 -0.0696,-0.23903 -0.004,-0.0134 -0.004,-0.0135 -0.0477,-0.0483 -0.14512,-0.1143 -0.28252,-0.23587 -0.43233,-0.38249 -0.0229,-0.0224 -0.0423,-0.0398 -0.0432,-0.0386 -8.4e-4,10e-4 -0.005,0.0124 -0.0105,0.0249 -0.0232,0.0587 -0.0541,0.11598 -0.0913,0.16921 -0.025,0.0358 -0.0704,0.0886 -0.0976,0.11351 -0.0205,0.0187 -0.0752,0.0621 -0.0765,0.0605 -5.3e-4,-6e-4 0.0108,-0.0289 0.0251,-0.0629 0.0144,-0.0341 0.0307,-0.0732 0.0363,-0.0871 0.005,-0.014 0.0175,-0.0435 0.0264,-0.0657 0.0304,-0.0757 0.0731,-0.20765 0.0859,-0.26589 0.03,-0.13522 0.0475,-0.25022 0.0578,-0.38003 0.003,-0.0347 0.005,-0.0671 0.006,-0.0721 9.1e-4,-0.008 9.1e-4,-0.008 0.005,-0.004 0.006,0.007 0.0279,0.0446 0.0368,0.0652 0.0479,0.11052 0.0573,0.25896 0.0253,0.40108 -0.004,0.0175 -0.006,0.0333 -0.006,0.0353 0.002,0.005 0.11156,0.0677 0.1563,0.0889 0.16816,0.0803 0.33509,0.11149 0.47356,0.0887 0.0609,-0.01 0.13921,-0.0388 0.1885,-0.0694 0.13198,-0.0818 0.26695,-0.20106 0.49448,-0.43712 0.1517,-0.15736 0.23709,-0.24941 0.49336,-0.53183 0.33079,-0.36452 0.52559,-0.56116 0.65044,-0.65655 0.0472,-0.0361 0.0663,-0.0484 0.10716,-0.0695 0.0633,-0.0326 0.14251,-0.0561 0.21514,-0.0638 0.0416,-0.004 0.13313,-0.003 0.17919,0.001 0.0964,0.0107 0.17246,0.0273 0.36852,0.0806 0.18236,0.0496 0.259,0.0628 0.34455,0.0598 0.10937,-0.004 0.19846,-0.031 0.39695,-0.12002 0.16248,-0.073 0.22381,-0.0952 0.30727,-0.1113 0.0953,-0.0185 0.16291,-0.0154 0.24538,0.0109 0.13994,0.0447 0.34157,0.16403 0.59577,0.35241 0.29015,0.21502 0.64451,0.52924 0.92752,0.82249 0.18747,0.19425 0.30133,0.2953 0.45767,0.40616 0.20822,0.14767 0.44655,0.25079 0.65894,0.28512 l 0.0114,0.002 -0.002,-0.0147 c -0.0103,-0.10045 -0.006,-0.18348 0.0136,-0.26965 0.0111,-0.0487 0.0217,-0.0808 0.041,-0.12437 0.02,-0.045 0.0411,-0.0794 0.0688,-0.11268 l 0.0214,-0.0256 9e-5,0.0698 c 1.3e-4,0.10088 0.004,0.16814 0.0155,0.2632 0.0143,0.11926 0.0333,0.20404 0.0787,0.35184 0.0101,0.0329 0.0165,0.0521 0.0457,0.13698 0.006,0.0192 0.0171,0.0507 0.0235,0.0698 0.006,0.0193 0.0163,0.0489 0.0221,0.0658 0.0192,0.056 0.0348,0.1128 0.0309,0.1128 -0.008,0 -0.0635,-0.0299 -0.0965,-0.0526 -0.0576,-0.0394 -0.12739,-0.11835 -0.17002,-0.19217 -0.0133,-0.0231 -0.0481,-0.0991 -0.0537,-0.1172 -0.003,-0.007 -0.005,-0.0141 -0.006,-0.0141 -9.2e-4,0 -0.0146,0.011 -0.0303,0.0245 -0.10289,0.0882 -0.25166,0.18883 -0.37763,0.25542 -0.0167,0.008 -0.0305,0.0163 -0.0309,0.0167 -3.6e-4,4e-4 -0.006,0.0229 -0.012,0.0501 -0.0929,0.40485 -0.22284,0.80613 -0.37035,1.14383 -0.18077,0.41385 -0.37536,0.72214 -0.60035,0.95108 -0.0985,0.10025 -0.16954,0.15733 -0.30677,0.24659 -0.24644,0.16029 -0.45631,0.26935 -0.71354,0.37078 -0.23519,0.0927 -0.55611,0.16417 -0.8203,0.18262 -0.0956,0.006 -0.28239,0.0106 -0.33859,0.006 z m 0.26994,-0.29907 c 0.33066,-0.0171 0.63161,-0.0851 0.95179,-0.21492 0.19615,-0.0795 0.34794,-0.15683 0.54686,-0.27849 0.14058,-0.086 0.18972,-0.12242 0.28496,-0.21138 0.15406,-0.1439 0.32367,-0.37 0.47363,-0.63135 0.18054,-0.31464 0.35547,-0.7116 0.5119,-1.1616 0.0351,-0.10098 0.0389,-0.1128 0.0366,-0.1128 -9.2e-4,0 -0.017,0.006 -0.0356,0.0145 -0.15276,0.0656 -0.31986,0.10964 -0.47944,0.12654 -0.15948,0.0169 -0.38995,0.0142 -0.58955,-0.006 -0.25335,-0.0267 -0.50354,-0.0804 -0.81162,-0.17405 l -0.0437,-0.0132 -0.0217,0.0353 c -0.059,0.0959 -0.1222,0.18212 -0.19209,0.26226 -0.0838,0.096 -0.16529,0.16756 -0.26212,0.23 -0.12609,0.0813 -0.25134,0.1225 -0.41174,0.13549 -0.0481,0.004 -0.14727,0.002 -0.19199,-0.004 -0.27753,-0.0366 -0.54405,-0.17955 -0.80867,-0.43375 -0.0496,-0.0476 -0.0898,-0.0895 -0.14957,-0.15558 l -0.052,-0.0576 -0.0132,0.007 c -0.007,0.004 -0.0367,0.0222 -0.0656,0.0404 -0.13052,0.0821 -0.22533,0.13435 -0.33859,0.18664 -0.17919,0.0827 -0.34613,0.12916 -0.52785,0.14682 -0.0545,0.005 -0.18842,0.006 -0.24242,10e-4 -0.16908,-0.0148 -0.34581,-0.0528 -0.48354,-0.10406 -0.0723,-0.0269 -0.19513,-0.089 -0.28325,-0.14326 -0.0543,-0.0334 -0.15454,-0.10046 -0.18699,-0.12496 l -0.006,-0.004 0.006,0.0171 c 0.13237,0.339 0.31154,0.71022 0.48855,1.0122 0.20765,0.35425 0.44371,0.66546 0.66796,0.88063 0.20787,0.19944 0.42316,0.34666 0.63921,0.43709 0.0618,0.0258 0.26639,0.0971 0.37655,0.1311 0.3139,0.0969 0.63053,0.15361 0.93594,0.16772 0.0685,0.003 0.21824,0.003 0.27692,2.5e-4 z m -2.27707,-2.46019 c 0.20244,-0.0112 0.39866,-0.0637 0.61785,-0.16506 0.0804,-0.0372 0.14494,-0.0715 0.26063,-0.13848 0.13808,-0.08 0.21871,-0.12086 0.32697,-0.16581 0.22353,-0.0928 0.44846,-0.1471 0.6702,-0.16168 0.0533,-0.003 0.2011,-0.003 0.25715,3e-5 0.19287,0.0122 0.35379,0.0426 0.62141,0.11776 0.69594,0.19543 1.05586,0.26972 1.45202,0.29968 0.14468,0.011 0.34594,0.0124 0.43817,0.003 0.24463,-0.0247 0.50546,-0.10705 0.75797,-0.23925 0.0422,-0.0221 0.15236,-0.0856 0.19082,-0.10997 l 0.0233,-0.0148 -0.0372,-9e-5 c -0.29501,-7.3e-4 -0.62056,-0.12127 -0.93432,-0.34594 -0.093,-0.0666 -0.16687,-0.12813 -0.31999,-0.26659 -0.1843,-0.16666 -0.40646,-0.35213 -0.60038,-0.50126 -0.38886,-0.29901 -0.65113,-0.46538 -0.8494,-0.53883 -0.035,-0.013 -0.0578,-0.0164 -0.0976,-0.0146 -0.0743,0.003 -0.14295,0.0265 -0.31666,0.10666 -0.16307,0.0753 -0.23652,0.10289 -0.33161,0.12468 -0.0686,0.0157 -0.0975,0.0189 -0.17337,0.0189 -0.0517,3e-5 -0.0751,-10e-4 -0.10007,-0.005 -0.0928,-0.0139 -0.13923,-0.0246 -0.30201,-0.0705 -0.19626,-0.0553 -0.26292,-0.0696 -0.35732,-0.0765 -0.0902,-0.006 -0.17509,0.008 -0.24591,0.0437 -0.0697,0.0347 -0.20485,0.15138 -0.40026,0.34575 -0.032,0.0318 -0.14457,0.14488 -0.25016,0.25121 -0.40887,0.41172 -0.54794,0.54556 -0.71933,0.69227 -0.2064,0.17666 -0.34577,0.27073 -0.46284,0.31241 -0.0755,0.0269 -0.12544,0.0363 -0.20322,0.0382 -0.0793,0.002 -0.14016,-0.006 -0.22147,-0.0301 -0.0218,-0.006 -0.0398,-0.0114 -0.04,-0.0112 -6.6e-4,7e-4 0.0874,0.0622 0.13534,0.0945 0.20938,0.14122 0.40159,0.24849 0.54846,0.30611 0.0712,0.0279 0.11749,0.0415 0.20665,0.0602 0.16858,0.0355 0.31262,0.0483 0.45614,0.0404 z"
         id="path956"
         inkscape:connector-curvature="0" />
    </g>
  </g>
</svg>
