<?xml version="1.0" encoding="UTF-8" standalone="no"?>
<!-- Created with Inkscape (http://www.inkscape.org/) -->

<svg
   xmlns:dc="http://purl.org/dc/elements/1.1/"
   xmlns:cc="http://creativecommons.org/ns#"
   xmlns:rdf="http://www.w3.org/1999/02/22-rdf-syntax-ns#"
   xmlns:svg="http://www.w3.org/2000/svg"
   xmlns="http://www.w3.org/2000/svg"
   xmlns:sodipodi="http://sodipodi.sourceforge.net/DTD/sodipodi-0.dtd"
   xmlns:inkscape="http://www.inkscape.org/namespaces/inkscape"
   width="10.583333mm"
   height="4.3296366mm"
   viewBox="0 0 10.583333 4.3296366"
   version="1.1"
   id="svg8"
   sodipodi:docname="txt.svg"
   inkscape:export-filename="/home/teacher/圖片/txt.png"
   inkscape:export-xdpi="128"
   inkscape:export-ydpi="128"
   inkscape:version="0.92.3 (2405546, 2018-03-11)">
  <sodipodi:namedview
     id="base"
     pagecolor="#ffffff"
     bordercolor="#666666"
     borderopacity="1.0"
     inkscape:pageopacity="0.0"
     inkscape:pageshadow="2"
     inkscape:zoom="8.2388076"
     inkscape:cx="33.281349"
     inkscape:cy="-7.2238587"
     inkscape:document-units="mm"
     inkscape:current-layer="layer1"
     showgrid="false"
     fit-margin-top="0"
     fit-margin-left="0"
     fit-margin-right="0"
     fit-margin-bottom="0"
     inkscape:window-width="1533"
     inkscape:window-height="836"
     inkscape:window-x="67"
     inkscape:window-y="27"
     inkscape:window-maximized="1" />
  <defs
     id="defs2" />
  <metadata
     id="metadata5">
    <rdf:RDF>
      <cc:Work
         rdf:about="">
        <dc:format>image/svg+xml</dc:format>
        <dc:type
           rdf:resource="http://purl.org/dc/dcmitype/StillImage" />
        <dc:title></dc:title>
      </cc:Work>
    </rdf:RDF>
  </metadata>
  <g
     transform="translate(390.2137,-539.13743)"
     id="layer1"
     inkscape:groupmode="layer"
     inkscape:label="圖層 1">
    <g
       id="g867"
       transform="matrix(0.11385546,0,0,0.11385546,-340.52694,479.59563)">
      <path
         inkscape:connector-curvature="0"
         id="text854"
         d="m -430.1359,529.19434 c 0.78288,8.74116 -2.2797,21.95726 3.80406,27.78798 4.67636,4.06629 11.54072,-0.45547 11.66838,-9.17182 0.35738,-7.00683 0.0147,-14.0629 0.13287,-21.08578 -7.26156,-3.42525 -5.1126,7.49818 -5.32725,14.81769 1.26825,4.12223 -1.21879,12.44823 -4.30072,7.62831 -1.2686,-7.21665 -0.21107,-15.01492 -0.55518,-22.446 -1.66657,0.92148 -6.28974,-2.21829 -5.42216,2.46962 z m 16.9814,0 c 0,9.57618 0,19.15237 0,28.72856 7.4107,5.43836 4.23012,-10.36317 6.36217,-10.05358 1.96175,5.70973 3.48271,12.58043 8.57723,10.05358 3.97148,-1.33967 11.61878,2.92535 12.93061,-2.46962 2.52514,-11.07818 -9.82629,0.52669 -7.50846,-10.23538 -1.19921,-5.9823 2.94087,-20.10569 -3.23937,-18.49318 -4.62864,0.63753 -1.06073,13.77273 -2.18278,19.75691 1.11158,11.71479 -1.52384,4.87524 -3.35167,-1.36021 5.1248,-4.13658 3.47825,-17.79475 -2.50388,-18.16275 -2.94419,-0.0517 -7.52208,-1.47669 -9.08385,1.00086 z m 22.89865,0 c -1.26462,9.22209 8.47437,1.66647 5.20862,13.93982 0.1571,7.44584 -1.86607,18.21604 5.42215,14.78874 0,-7.8108 0,-15.62159 0,-23.43239 5.08622,-2.96199 9.33239,7.17643 5.39543,12.77755 -3.07684,6.85631 -5.56502,13.19453 1.9153,10.65484 1.63582,-1.62141 2.8699,-13.6856 4.37587,-5.11903 -0.48403,6.94935 10.67429,7.56291 6.59181,1.42425 -2.49448,-6.55869 -6.52523,-13.1026 -1.81523,-19.73056 6.58991,-3.20582 4.2691,7.22533 4.60381,13.57583 -3.23332,9.0484 5.9351,15.14032 5.42057,4.91028 1.20184,-5.9783 -2.94577,-20.11316 3.23938,-18.49316 5.61107,-3.15255 -0.28758,-11.26638 -5.31777,-7.76579 -3.66082,0.94037 -8.76514,-1.75037 -11.57664,1.32646 -2.63898,13.07132 -2.67788,-3.2149 -7.62391,-1.32646 -5.2798,0 -10.5596,0 -15.83939,0 v 1.23481 z m -16.24275,5.18763 c 4.37011,-1.24493 2.27267,7.64707 -1.23374,4.79211 0.41636,-1.66318 -1.04808,-6.06487 1.23374,-4.79211 z"
         style="font-style:normal;font-weight:normal;font-size:28.97323608px;line-height:1.25;font-family:sans-serif;letter-spacing:0px;word-spacing:0px;fill:#000000;fill-opacity:1;stroke:#000000;stroke-width:1.03192043;stroke-miterlimit:4;stroke-dasharray:none" />
      <text
         transform="scale(0.80984323,1.2348069)"
         id="text860"
         y="449.83005"
         x="-532.28168"
         style="font-style:normal;font-weight:normal;font-size:28.97323608px;line-height:1.25;font-family:sans-serif;letter-spacing:0px;word-spacing:0px;fill:#ffff00;fill-opacity:1;stroke:#ffff00;stroke-width:1.03192043;stroke-miterlimit:4;stroke-dasharray:none"
         xml:space="preserve"><tspan
           style="fill:#ffff00;stroke:#ffff00;stroke-width:1.03192043;stroke-miterlimit:4;stroke-dasharray:none"
           y="449.83005"
           x="-532.28168"
           id="tspan858"
           sodipodi:role="line">URLTXT</tspan></text>
    </g>
  </g>
</svg>
